<?xml version="1.0" encoding="UTF-8" standalone="no"?>
<!-- Created with Inkscape (http://www.inkscape.org/) -->

<svg
   width="148.74373mm"
   height="180.44583mm"
   viewBox="0 0 148.74372 180.44583"
   version="1.1"
   id="svg1042"
   inkscape:version="1.2 (dc2aedaf03, 2022-05-15)"
   sodipodi:docname="fpm-logo-color.svg"
   xmlns:inkscape="http://www.inkscape.org/namespaces/inkscape"
   xmlns:sodipodi="http://sodipodi.sourceforge.net/DTD/sodipodi-0.dtd"
   xmlns="http://www.w3.org/2000/svg"
   xmlns:svg="http://www.w3.org/2000/svg">
  <sodipodi:namedview
     id="namedview1044"
     pagecolor="#ffffff"
     bordercolor="#666666"
     borderopacity="1.0"
     inkscape:pageshadow="2"
     inkscape:pageopacity="0.0"
     inkscape:pagecheckerboard="0"
     inkscape:document-units="mm"
     showgrid="false"
     inkscape:zoom="1.0176954"
     inkscape:cx="96.78731"
     inkscape:cy="157.70927"
     inkscape:window-width="1920"
     inkscape:window-height="1020"
     inkscape:window-x="0"
     inkscape:window-y="32"
     inkscape:window-maximized="1"
     inkscape:current-layer="layer1"
     inkscape:showpageshadow="2"
     inkscape:deskcolor="#d1d1d1" />
  <defs
     id="defs1039" />
  <g
     inkscape:label="Layer 1"
     inkscape:groupmode="layer"
     id="layer1"
     transform="translate(43.568467,-32.821836)">
    <path
       style="fill:#4e52a3;fill-opacity:1;stroke-width:0.264583"
       d="m -36.666546,158.2555 h 58.598064 l -6.866202,53.53209 c -0.10848,0.84614 -0.82894,1.48008 -1.681957,1.48008 H -42.43804 c -0.681207,0 -1.207293,-0.59796 -1.121176,-1.27344 z"
       id="path18" />
    <path
       style="fill:#6853ad;fill-opacity:1;stroke-width:0.264583"
       d="m 24.089988,95.541314 h -52.160275 l -7.056067,55.012166 h 58.598276 l 6.2357,-48.61798 c -3.514725,-0.041 -6.024827,-2.888192 -5.617634,-6.394186 z"
       id="path20" />
    <path
       style="fill:#734f96;fill-opacity:1;stroke-width:0.264583"
       d="M 96.871571,95.541314 H 45.472555 c -0.7366,4.080404 -4.414044,6.435726 -7.659952,6.394186 l -6.198394,48.61798 h 56.750479 c 0.853545,0 1.57427,-0.63447 1.68222,-1.4814 z"
       id="path22" />
    <path
       style="fill:#a34e9c;fill-opacity:1;stroke-width:0.264583"
       d="m 47.086778,32.823951 h 56.957382 c 0.6813,0 1.20809,0.597851 1.12183,1.273536 l -6.851382,53.738616 -51.803564,-2.65e-4 c 0.407459,-3.507581 -2.105025,-6.355821 -5.622395,-6.394185 z"
       id="path183" />
    <path
       style="fill:#9953ad;fill-opacity:1;stroke-width:0.264583"
       d="M 39.278924,32.826451 C 11.352153,32.47039 -20.289261,52.732711 -26.622725,87.838235 h 51.789832 c 0.7366,-4.080139 4.414044,-6.43546 7.660217,-6.394185 z"
       id="path24" />
  </g>
</svg>
