<?xml version="1.0" encoding="UTF-8" standalone="no"?>
<!-- Created with Inkscape (http://www.inkscape.org/) -->

<svg
   width="148.74376mm"
   height="180.44583mm"
   viewBox="0 0 148.74375 180.44583"
   version="1.1"
   id="svg1042"
   inkscape:version="1.2 (dc2aedaf03, 2022-05-15)"
   sodipodi:docname="fpm-logo-light.svg"
   xmlns:inkscape="http://www.inkscape.org/namespaces/inkscape"
   xmlns:sodipodi="http://sodipodi.sourceforge.net/DTD/sodipodi-0.dtd"
   xmlns="http://www.w3.org/2000/svg"
   xmlns:svg="http://www.w3.org/2000/svg">
  <sodipodi:namedview
     id="namedview1044"
     pagecolor="#ffffff"
     bordercolor="#666666"
     borderopacity="1.0"
     inkscape:pageshadow="2"
     inkscape:pageopacity="0.0"
     inkscape:pagecheckerboard="0"
     inkscape:document-units="mm"
     showgrid="false"
     inkscape:zoom="0.87081512"
     inkscape:cx="123.44756"
     inkscape:cy="371.49102"
     inkscape:window-width="1920"
     inkscape:window-height="1020"
     inkscape:window-x="0"
     inkscape:window-y="32"
     inkscape:window-maximized="1"
     inkscape:current-layer="layer1"
     inkscape:showpageshadow="2"
     inkscape:deskcolor="#d1d1d1" />
  <defs
     id="defs1039" />
  <g
     inkscape:label="Layer 1"
     inkscape:groupmode="layer"
     id="layer1"
     transform="translate(235.04682,39.425473)">
    <path
       d="m -228.1449,86.008192 h 58.59806 l -6.8662,53.532088 c -0.10848,0.84614 -0.82894,1.48008 -1.68195,1.48008 h -55.8214 c -0.68121,0 -1.2073,-0.59796 -1.12118,-1.27344 z"
       fill="#4d41b1"
       id="path18"
       style="fill:#e2dbe3;fill-opacity:1;stroke-width:0.264583" />
    <path
       d="m -167.38836,23.294005 h -52.16028 l -7.05607,55.012166 h 58.59828 l 6.23571,-48.61798 c -3.51473,-0.04101 -6.02483,-2.888192 -5.61764,-6.394186 z"
       fill="#4d41b1"
       id="path20"
       style="fill:#e2dbe3;fill-opacity:1;stroke-width:0.264583" />
    <path
       d="m -94.606752,23.294005 h -51.399038 c -0.7366,4.080404 -4.41404,6.435725 -7.65995,6.394186 l -6.1984,48.61798 h 56.75051 c 0.85354,0 1.57427,-0.63447 1.68222,-1.481402 z"
       fill="#4d41b1"
       id="path22"
       style="fill:#e2dbe3;fill-opacity:1;stroke-width:0.264583" />
    <path
       fill-rule="evenodd"
       clip-rule="evenodd"
       d="m -152.19942,-39.420858 c -27.92678,-0.356061 -59.56819,19.90626 -65.90166,55.011784 h 51.78984 c 0.7366,-4.080139 4.41404,-6.43546 7.66022,-6.394185 z m 7.80785,-0.0025 h 56.957407 c 0.681302,0 1.208088,0.597851 1.121834,1.273536 l -6.851386,53.738616 -51.803585,-2.65e-4 c 0.40746,-3.507581 -2.10503,-6.3558207 -5.62239,-6.3941853 z"
       fill="#4d41b1"
       id="path24"
       style="fill:#e2dbe3;fill-opacity:1;stroke-width:0.264583" />
  </g>
</svg>
