<?xml version="1.0" encoding="UTF-8" standalone="no"?>
<!-- Created with Inkscape (http://www.inkscape.org/) -->

<svg
   width="149.00818mm"
   height="180.71042mm"
   viewBox="0 0 149.00817 180.71042"
   version="1.1"
   id="svg1042"
   sodipodi:docname="fpm-logo-outline.svg"
   inkscape:version="1.2 (dc2aedaf03, 2022-05-15)"
   xmlns:inkscape="http://www.inkscape.org/namespaces/inkscape"
   xmlns:sodipodi="http://sodipodi.sourceforge.net/DTD/sodipodi-0.dtd"
   xmlns="http://www.w3.org/2000/svg"
   xmlns:svg="http://www.w3.org/2000/svg">
  <sodipodi:namedview
     id="namedview1044"
     pagecolor="#ffffff"
     bordercolor="#666666"
     borderopacity="1.0"
     inkscape:pageshadow="2"
     inkscape:pageopacity="0.0"
     inkscape:pagecheckerboard="0"
     inkscape:document-units="mm"
     showgrid="false"
     inkscape:zoom="1.0176954"
     inkscape:cx="416.62761"
     inkscape:cy="352.2665"
     inkscape:window-width="1920"
     inkscape:window-height="1020"
     inkscape:window-x="0"
     inkscape:window-y="32"
     inkscape:window-maximized="1"
     inkscape:current-layer="layer1"
     inkscape:showpageshadow="2"
     inkscape:deskcolor="#d1d1d1" />
  <defs
     id="defs1039" />
  <g
     inkscape:label="Layer 1"
     inkscape:groupmode="layer"
     id="layer1"
     transform="translate(221.68846,61.740951)">
    <path
       d="m -214.65431,63.825008 h 58.59806 l -6.8662,53.532092 c -0.10848,0.84613 -0.82894,1.48008 -1.68195,1.48008 h -55.8214 c -0.68121,0 -1.2073,-0.59796 -1.12118,-1.27344 z"
       fill="#4d41b1"
       id="path18"
       style="fill:none;stroke:#e2dbe3;stroke-width:0.264583" />
    <path
       d="m -153.89777,1.1108198 h -52.16028 l -7.05607,55.0121682 h 58.59828 l 6.2357,-48.6179822 c -3.51473,-0.04101 -6.02483,-2.888192 -5.61763,-6.394186 z"
       fill="#4d41b1"
       id="path20"
       style="fill:none;stroke:#e2dbe3;stroke-width:0.264583" />
    <path
       d="m -81.116193,1.1108198 h -51.399017 c -0.7366,4.080405 -4.41404,6.435725 -7.65995,6.394186 l -6.19839,48.6179822 h 56.750474 c 0.853545,0 1.57427,-0.63447 1.68222,-1.4814 z"
       fill="#4d41b1"
       id="path22"
       style="fill:none;stroke:#e2dbe3;stroke-width:0.264583" />
    <path
       fill-rule="evenodd"
       clip-rule="evenodd"
       d="m -138.70884,-61.604043 c -27.92677,-0.356061 -59.56818,19.90626 -65.90165,55.0117838 h 51.78983 c 0.7366,-4.0801388 4.41405,-6.4354598 7.66022,-6.3941848 z m 7.80785,-0.0025 h 56.957386 c 0.681302,0 1.208088,0.597851 1.121834,1.273536 l -6.851386,53.7386158 -51.803564,-2.65e-4 c 0.40746,-3.5075808 -2.10503,-6.3558208 -5.62239,-6.3941848 z"
       fill="#4d41b1"
       id="path24"
       style="fill:none;stroke:#e2dbe3;stroke-width:0.264583" />
  </g>
</svg>
