<?xml version="1.0" encoding="UTF-8" standalone="no"?>
<!-- Created with Inkscape (http://www.inkscape.org/) -->

<svg
   width="68mm"
   height="67.99852mm"
   viewBox="0 0 67.999999 67.998521"
   version="1.1"
   id="svg1428"
   inkscape:version="1.1.1 (3bf5ae0d25, 2021-09-20)"
   sodipodi:docname="fortran-logo.svg"
   xmlns:inkscape="http://www.inkscape.org/namespaces/inkscape"
   xmlns:sodipodi="http://sodipodi.sourceforge.net/DTD/sodipodi-0.dtd"
   xmlns="http://www.w3.org/2000/svg"
   xmlns:svg="http://www.w3.org/2000/svg">
  <sodipodi:namedview
     id="namedview1430"
     pagecolor="#ffffff"
     bordercolor="#666666"
     borderopacity="1.0"
     inkscape:pageshadow="2"
     inkscape:pageopacity="0.0"
     inkscape:pagecheckerboard="0"
     inkscape:document-units="mm"
     showgrid="false"
     inkscape:zoom="0.66903058"
     inkscape:cx="328.834"
     inkscape:cy="-12.70495"
     inkscape:window-width="1920"
     inkscape:window-height="1020"
     inkscape:window-x="0"
     inkscape:window-y="0"
     inkscape:window-maximized="1"
     inkscape:current-layer="layer1" />
  <defs
     id="defs1425" />
  <g
     inkscape:label="Layer 1"
     inkscape:groupmode="layer"
     id="layer1"
     transform="translate(-18.160383,-151.83041)">
    <path
       id="path1214"
       style="display:inline;fill:#ffffff;stroke-width:2.9565;stroke-linecap:round;stroke-linejoin:round"
       d="m 24.073006,151.83041 c -3.275806,0 -5.912623,2.63685 -5.912623,5.91266 v 56.17318 c 0,3.27581 2.636817,5.91268 5.912623,5.91268 H 80.24773 c 3.275836,0 5.912653,-2.63687 5.912653,-5.91268 v -56.17318 c 0,-3.27581 -2.636817,-5.91266 -5.912653,-5.91266 z"
       inkscape:export-filename="/home/awvwgk/path860.png"
       inkscape:export-xdpi="96"
       inkscape:export-ydpi="96"
       sodipodi:nodetypes="sssssssss" />
    <path
       id="path860"
       style="display:inline;fill:#734f96;stroke-width:2.9565;stroke-linecap:round;stroke-linejoin:round"
       d="m 24.073006,151.83041 c -3.275806,0 -5.912623,2.63685 -5.912623,5.91266 v 56.17318 c 0,3.27581 2.636817,5.91268 5.912623,5.91268 H 80.24773 c 3.275836,0 5.912653,-2.63687 5.912653,-5.91268 v -56.17318 c 0,-3.27581 -2.636817,-5.91266 -5.912653,-5.91266 z m 4.630832,8.96829 h 46.861145 v 20.86387 h -5.793476 c 0,-2.61562 -0.171181,-4.84012 -0.513338,-6.67351 -0.171181,-0.9289 -0.38807,-1.78753 -0.650845,-2.57589 -0.262833,-0.78837 -0.571402,-1.50645 -0.925858,-2.15425 -0.366666,-0.67222 -0.849462,-1.24974 -1.448361,-1.73254 -0.598929,-0.48277 -1.31393,-0.87084 -2.145062,-1.16418 -0.831133,-0.29329 -1.873093,-0.51335 -3.125911,-0.66001 -1.25282,-0.14665 -2.716466,-0.21997 -4.390941,-0.21997 h -9.386899 v 15.47372 h 1.283358 c 1.576704,0 2.881469,-0.13452 3.914264,-0.40336 1.032795,-0.26904 1.793651,-0.67222 2.282568,-1.21 0.488888,-0.55003 0.886124,-1.45144 1.191679,-2.70425 0.305583,-1.2528 0.519457,-2.85702 0.641679,-4.81261 l 5.720155,-0.0367 v 25.26391 l -5.720155,-0.0367 c -0.109982,-2.16337 -0.317765,-3.94176 -0.62335,-5.33513 -0.305554,-1.39337 -0.70888,-2.40172 -1.210008,-3.02506 -0.244503,-0.3178 -0.556148,-0.59586 -0.933516,-0.83418 -0.377368,-0.23829 -0.820429,-0.43697 -1.330722,-0.59586 -1.020585,-0.31776 -2.30699,-0.47667 -3.859242,-0.47667 h -1.35671 v 13.05365 c 0,1.01446 0.06711,1.84255 0.201633,2.48423 0.134521,0.64168 0.336125,1.09698 0.605019,1.36587 0.281164,0.26904 0.773067,0.47056 1.475857,0.60501 0.70282,0.13453 1.616439,0.20164 2.740916,0.20164 h 3.520072 v 5.72013 H 28.703808 v -5.72013 h 2.933383 c 1.112267,0 2.013675,-0.0642 2.704255,-0.19246 0.69058,-0.12832 1.170303,-0.32085 1.439197,-0.57753 0.268746,-0.26874 0.470557,-0.72724 0.605019,-1.37504 0.134521,-0.6478 0.201633,-1.48505 0.201633,-2.51172 V 171.1389 c 0,-1.02668 -0.06711,-1.86089 -0.201633,-2.50257 -0.134521,-0.64169 -0.336125,-1.09087 -0.605019,-1.34755 -0.268746,-0.26874 -0.748617,-0.47055 -1.439197,-0.60498 -0.69058,-0.13453 -1.591988,-0.20164 -2.704255,-0.20164 h -2.933383 z"
       inkscape:export-filename="/home/awvwgk/path860.png"
       inkscape:export-xdpi="96"
       inkscape:export-ydpi="96" />
  </g>
</svg>
