<?xml version="1.0" encoding="UTF-8" standalone="no"?>
<!-- Created with Inkscape (http://www.inkscape.org/) -->

<svg
   width="34.566067mm"
   height="42.478699mm"
   viewBox="0 0 34.566065 42.478699"
   version="1.1"
   id="svg1042"
   inkscape:version="1.1.2 (0a00cf5339, 2022-02-04)"
   sodipodi:docname="fpm-logo-light.svg"
   xmlns:inkscape="http://www.inkscape.org/namespaces/inkscape"
   xmlns:sodipodi="http://sodipodi.sourceforge.net/DTD/sodipodi-0.dtd"
   xmlns="http://www.w3.org/2000/svg"
   xmlns:svg="http://www.w3.org/2000/svg">
  <sodipodi:namedview
     id="namedview1044"
     pagecolor="#ffffff"
     bordercolor="#666666"
     borderopacity="1.0"
     inkscape:pageshadow="2"
     inkscape:pageopacity="0.0"
     inkscape:pagecheckerboard="0"
     inkscape:document-units="mm"
     showgrid="false"
     inkscape:zoom="3.3920269"
     inkscape:cx="-20.194415"
     inkscape:cy="70.90156"
     inkscape:window-width="1920"
     inkscape:window-height="1020"
     inkscape:window-x="0"
     inkscape:window-y="32"
     inkscape:window-maximized="1"
     inkscape:current-layer="layer1" />
  <defs
     id="defs1039" />
  <g
     inkscape:label="Layer 1"
     inkscape:groupmode="layer"
     id="layer1"
     transform="translate(83.069083,-28.411)">
    <path
       id="rect1170"
       style="fill:#e2dbe3;fill-opacity:1;stroke-width:0.39632;stroke-linecap:round"
       d="m -81.481583,57.844231 h 13.802567 l -1.5875,13.045468 h -13.802567 z"
       sodipodi:nodetypes="ccccc" />
    <path
       id="path1495"
       style="fill:#e2dbe3;fill-opacity:1;stroke-width:1.4979;stroke-linecap:round"
       d="M 12.802734 55.566406 L 6.8027344 104.87305 L 58.970703 104.87305 L 64.117188 62.583984 C 60.403365 62.177148 56.95843 59.176539 57.335938 55.566406 L 12.802734 55.566406 z "
       transform="matrix(0.26458333,0,0,0.26458333,-83.069083,28.411)" />
    <path
       id="path1497"
       style="fill:#e2dbe3;fill-opacity:1;stroke-width:1.4979;stroke-linecap:round"
       d="M 78.839844 55.566406 C 78.82935 55.609754 78.821252 55.654013 78.810547 55.697266 C 78.79146 55.774389 78.772302 55.851214 78.751953 55.927734 C 78.7502 55.934326 78.747856 55.940679 78.746094 55.947266 C 78.699134 56.122771 78.649303 56.296781 78.595703 56.46875 C 78.57951 56.520713 78.563673 56.573388 78.546875 56.625 C 78.545416 56.629482 78.544432 56.634193 78.542969 56.638672 C 78.486397 56.81178 78.424706 56.98157 78.361328 57.150391 C 78.324423 57.248752 78.287257 57.346585 78.248047 57.443359 C 78.192155 57.581222 78.132829 57.717164 78.072266 57.851562 C 78.031976 57.941016 77.991573 58.029372 77.949219 58.117188 C 77.869543 58.282311 77.786184 58.444608 77.699219 58.603516 C 77.696153 58.609119 77.694481 58.615498 77.691406 58.621094 C 77.67369 58.653335 77.654736 58.684827 77.636719 58.716797 C 77.533295 58.900239 77.425799 59.07991 77.3125 59.253906 C 77.303531 59.267688 77.294187 59.281202 77.285156 59.294922 C 77.165336 59.47684 77.040833 59.653789 76.910156 59.824219 C 76.890876 59.849383 76.871079 59.873537 76.851562 59.898438 C 76.726234 60.058236 76.595978 60.212865 76.460938 60.361328 C 76.439745 60.384645 76.417916 60.406662 76.396484 60.429688 C 76.262628 60.573401 76.123624 60.71188 75.980469 60.84375 C 75.952592 60.869436 75.924713 60.894704 75.896484 60.919922 C 75.748426 61.052164 75.595225 61.178014 75.4375 61.296875 C 75.416715 61.312539 75.395952 61.328327 75.375 61.34375 C 75.217242 61.459866 75.053959 61.567942 74.886719 61.669922 C 74.856567 61.688315 74.827335 61.708647 74.796875 61.726562 C 74.614815 61.833603 74.427405 61.932059 74.234375 62.021484 C 74.228288 62.024305 74.222895 62.028447 74.216797 62.03125 C 74.012731 62.125016 73.804129 62.208351 73.587891 62.28125 C 73.580868 62.283619 73.573442 62.284763 73.566406 62.287109 C 73.35251 62.358396 73.131971 62.419054 72.90625 62.46875 C 72.893923 62.471466 72.881503 62.473914 72.869141 62.476562 C 72.638412 62.525976 72.401172 62.564187 72.158203 62.589844 C 71.909272 62.61613 71.65431 62.630859 71.392578 62.630859 L 70.820312 62.630859 L 65.679688 104.87305 L 117.84766 104.87305 L 123.84766 55.566406 L 78.839844 55.566406 z "
       transform="matrix(0.26458333,0,0,0.26458333,-83.069083,28.411)" />
    <path
       id="path1499"
       style="fill:#e2dbe3;fill-opacity:1;stroke-width:1.4979;stroke-linecap:round"
       d="M 78.476562 0 L 73.378906 41.890625 C 73.616438 41.916654 73.851527 41.95327 74.085938 42 C 74.089194 42.000649 74.092447 42.0013 74.095703 42.001953 C 74.096944 42.002202 74.098368 42.001704 74.099609 42.001953 C 74.335439 42.049369 74.570039 42.108474 74.800781 42.175781 C 75.03205 42.243242 75.260125 42.319871 75.484375 42.40625 C 75.485717 42.406767 75.486939 42.407686 75.488281 42.408203 C 75.489628 42.408723 75.490841 42.409636 75.492188 42.410156 C 75.7072 42.493224 75.918188 42.584092 76.125 42.683594 C 76.133386 42.687628 76.14202 42.691252 76.150391 42.695312 C 76.155086 42.69759 76.159372 42.700839 76.164062 42.703125 C 76.374659 42.805759 76.581092 42.916439 76.78125 43.035156 C 76.979977 43.153025 77.1727 43.277417 77.359375 43.410156 C 77.365815 43.414737 77.372481 43.41923 77.378906 43.423828 C 77.384938 43.428144 77.390466 43.433169 77.396484 43.4375 C 77.582379 43.571268 77.76164 43.711768 77.933594 43.859375 C 78.110961 44.011628 78.280773 44.171974 78.441406 44.337891 C 78.444626 44.341218 78.447959 44.344324 78.451172 44.347656 C 78.606081 44.508265 78.753155 44.673341 78.890625 44.845703 C 78.892639 44.848229 78.894475 44.850987 78.896484 44.853516 C 78.898513 44.856067 78.900319 44.858774 78.902344 44.861328 C 79.042189 45.037703 79.171253 45.220623 79.291016 45.408203 C 79.53365 45.788231 79.734134 46.189788 79.882812 46.609375 C 79.957144 46.819147 80.018453 47.033908 80.066406 47.251953 C 80.210429 47.906835 80.230324 48.596563 80.101562 49.306641 L 124.64258 49.306641 L 130.64258 0 L 78.476562 0 z "
       transform="matrix(0.26458333,0,0,0.26458333,-83.069083,28.411)" />
    <path
       id="path1501"
       style="fill:#e2dbe3;fill-opacity:1;stroke-width:1.4979;stroke-linecap:round"
       d="M 71.927734 0 C 35.710446 0.16386142 15.984984 28.585154 13.761719 49.306641 L 58.5625 49.306641 C 58.603508 49.108355 58.650085 48.911594 58.699219 48.716797 C 58.709046 48.678435 58.718689 48.639811 58.728516 48.601562 C 58.781051 48.400575 58.837247 48.202281 58.898438 48.005859 C 58.915219 47.951926 58.931833 47.897344 58.949219 47.84375 C 58.952242 47.835435 58.954287 47.826674 58.957031 47.818359 C 59.014064 47.644732 59.076789 47.473973 59.140625 47.304688 C 59.163529 47.244026 59.185173 47.183104 59.208984 47.123047 C 59.210496 47.118511 59.213022 47.11391 59.214844 47.109375 C 59.286315 46.929394 59.362074 46.752286 59.441406 46.578125 C 59.463101 46.530541 59.485513 46.482678 59.507812 46.435547 C 59.509173 46.432523 59.51023 46.428926 59.511719 46.425781 C 59.591807 46.256693 59.676025 46.092396 59.763672 45.929688 C 59.791451 45.878097 59.818932 45.826339 59.847656 45.775391 C 59.851814 45.76821 59.855218 45.761087 59.859375 45.753906 C 59.94226 45.606977 60.029906 45.463166 60.119141 45.322266 C 60.153421 45.268105 60.187507 45.213372 60.222656 45.160156 C 60.231349 45.146815 60.241307 45.134322 60.25 45.121094 C 60.352425 44.968027 60.458148 44.818622 60.568359 44.673828 C 60.586766 44.649904 60.604527 44.625374 60.623047 44.601562 C 60.627582 44.595515 60.632183 44.589654 60.636719 44.583984 C 60.753544 44.43461 60.874746 44.289931 61 44.150391 C 61.029102 44.117962 61.05841 44.084482 61.087891 44.052734 C 61.087891 44.052734 61.089844 44.050781 61.089844 44.050781 C 61.225975 43.904196 61.367895 43.765184 61.513672 43.630859 C 61.53291 43.613209 61.551037 43.593558 61.570312 43.576172 C 61.574092 43.57277 61.578274 43.569781 61.582031 43.566406 C 61.741788 43.422882 61.907064 43.286065 62.078125 43.158203 C 62.081905 43.15518 62.086083 43.153191 62.089844 43.150391 C 62.269175 43.016936 62.454787 42.892393 62.646484 42.777344 C 62.653288 42.773564 62.65959 42.769405 62.666016 42.765625 C 62.671307 42.762601 62.676349 42.75897 62.681641 42.755859 C 62.86909 42.64493 63.06066 42.543355 63.259766 42.451172 C 63.264301 42.449275 63.268902 42.447391 63.273438 42.445312 C 63.278729 42.442667 63.283771 42.439911 63.289062 42.4375 C 63.489997 42.345695 63.697444 42.264944 63.910156 42.193359 C 63.914314 42.192226 63.917718 42.188876 63.921875 42.1875 C 63.92641 42.186132 63.931011 42.185075 63.935547 42.183594 C 64.14881 42.112841 64.368755 42.053229 64.59375 42.003906 C 64.602065 42.002394 64.610448 41.99988 64.619141 41.998047 C 64.844589 41.949518 65.075335 41.91242 65.3125 41.886719 C 65.322705 41.88577 65.33197 41.883848 65.341797 41.882812 C 65.345198 41.882476 65.348339 41.883145 65.351562 41.882812 C 65.595081 41.857754 65.845802 41.84375 66.101562 41.84375 L 66.835938 41.84375 L 71.927734 0 z "
       transform="matrix(0.26458333,0,0,0.26458333,-83.069083,28.411)" />
    <path
       id="path6080"
       style="fill:#e2dbe3;fill-opacity:1;stroke-width:0.39632;stroke-linecap:round"
       d="m -81.481583,57.844231 h 13.802567 l -1.5875,13.045468 h -13.802567 z"
       sodipodi:nodetypes="ccccc" />
  </g>
</svg>
