<?xml version="1.0" encoding="UTF-8" standalone="no"?>
<!-- Created with Inkscape (http://www.inkscape.org/) -->

<svg
   width="35.013298mm"
   height="42.876041mm"
   viewBox="0 0 35.013296 42.876042"
   version="1.1"
   id="svg1042"
   sodipodi:docname="fpm-logo-outline.svg"
   inkscape:version="1.1.2 (0a00cf5339, 2022-02-04)"
   xmlns:inkscape="http://www.inkscape.org/namespaces/inkscape"
   xmlns:sodipodi="http://sodipodi.sourceforge.net/DTD/sodipodi-0.dtd"
   xmlns="http://www.w3.org/2000/svg"
   xmlns:svg="http://www.w3.org/2000/svg">
  <sodipodi:namedview
     id="namedview1044"
     pagecolor="#ffffff"
     bordercolor="#666666"
     borderopacity="1.0"
     inkscape:pageshadow="2"
     inkscape:pageopacity="0.0"
     inkscape:pagecheckerboard="0"
     inkscape:document-units="mm"
     showgrid="false"
     inkscape:zoom="1.0176954"
     inkscape:cx="91.874248"
     inkscape:cy="-125.28307"
     inkscape:window-width="1920"
     inkscape:window-height="1020"
     inkscape:window-x="0"
     inkscape:window-y="32"
     inkscape:window-maximized="1"
     inkscape:current-layer="layer1" />
  <defs
     id="defs1039" />
  <g
     inkscape:label="Layer 1"
     inkscape:groupmode="layer"
     id="layer1"
     transform="translate(83.292819,-75.836829)">
    <path
       id="path8445"
       style="fill:none;fill-opacity:1;stroke:#e2dbe3;stroke-width:0.39632;stroke-linecap:round;stroke-opacity:1"
       d="m -81.481583,105.46924 h 13.802567 l -1.5875,13.04547 h -13.802567 z"
       sodipodi:nodetypes="ccccc" />
    <path
       id="path8447"
       style="fill:none;fill-opacity:1;stroke:#e2dbe3;stroke-width:0.396319;stroke-linecap:round;stroke-opacity:1"
       d="m -79.681693,90.737947 -1.5875,13.045713 h 13.802775 l 1.361674,-11.188978 c -0.982616,-0.107642 -1.894088,-0.901554 -1.794206,-1.856735 z" />
    <path
       id="path8449"
       style="fill:none;fill-opacity:1;stroke:#e2dbe3;stroke-width:0.396319;stroke-linecap:round;stroke-opacity:1"
       d="m -62.209375,90.737947 c -0.0028,0.01147 -0.0049,0.02318 -0.0078,0.03462 -0.005,0.02041 -0.01012,0.04073 -0.0155,0.06098 -4.64e-4,0.0017 -0.0011,0.0034 -0.0015,0.0052 -0.01243,0.04644 -0.02561,0.09248 -0.03979,0.137976 -0.0043,0.01375 -0.0085,0.02768 -0.01292,0.04134 -3.86e-4,0.0012 -6.47e-4,0.0024 -0.001,0.0036 -0.01497,0.0458 -0.03129,0.09072 -0.04806,0.135392 -0.0098,0.02603 -0.0196,0.05191 -0.02997,0.07751 -0.01479,0.03648 -0.03048,0.07244 -0.04651,0.108004 -0.01066,0.02367 -0.02135,0.04705 -0.03256,0.07028 -0.02108,0.04369 -0.04314,0.08663 -0.06615,0.128674 -8.11e-4,0.0015 -0.0013,0.0032 -0.0021,0.0047 -0.0047,0.0085 -0.0097,0.01686 -0.01447,0.02532 -0.02736,0.04854 -0.05581,0.09607 -0.08578,0.14211 -0.0024,0.0036 -0.0048,0.0072 -0.0072,0.01085 -0.0317,0.04813 -0.06464,0.09495 -0.09922,0.140043 -0.0051,0.0067 -0.01034,0.01305 -0.0155,0.01964 -0.03316,0.04228 -0.06762,0.08319 -0.103352,0.122473 -0.0056,0.0062 -0.01138,0.01199 -0.01705,0.01809 -0.03542,0.03802 -0.07219,0.07466 -0.11007,0.109554 -0.0074,0.0068 -0.01475,0.01348 -0.02222,0.02015 -0.03917,0.03499 -0.07971,0.06829 -0.121439,0.09974 -0.0055,0.0041 -0.01099,0.0083 -0.01654,0.0124 -0.04174,0.03072 -0.08494,0.05932 -0.129191,0.0863 -0.008,0.0049 -0.01571,0.01025 -0.02377,0.01499 -0.04817,0.02832 -0.09775,0.05437 -0.148828,0.07803 -0.0016,7.47e-4 -0.003,0.0018 -0.0047,0.0026 -0.05399,0.02481 -0.109185,0.04686 -0.166398,0.06615 -0.0019,6.27e-4 -0.0038,9.3e-4 -0.0057,0.0016 -0.05659,0.01886 -0.114945,0.03491 -0.174667,0.04806 -0.0033,7.18e-4 -0.0065,0.0014 -0.0098,0.0021 -0.06105,0.01308 -0.123817,0.02318 -0.188102,0.02997 -0.06586,0.007 -0.133322,0.01085 -0.202572,0.01085 h -0.151412 l -1.360123,11.176577 h 13.802775 l 1.5875,-13.045714 z" />
    <path
       id="path8451"
       style="fill:none;fill-opacity:1;stroke:#e2dbe3;stroke-width:0.396319;stroke-linecap:round;stroke-opacity:1"
       d="m -62.305493,76.036003 -1.348755,11.083561 c 0.06285,0.0069 0.125048,0.01657 0.187069,0.02894 8.62e-4,1.71e-4 0.0017,3.43e-4 0.0026,5.16e-4 3.28e-4,6.6e-5 7.05e-4,-6.6e-5 10e-4,0 0.0624,0.01255 0.124468,0.02818 0.185519,0.04599 0.06119,0.01785 0.121534,0.03812 0.180867,0.06098 3.55e-4,1.36e-4 6.79e-4,3.79e-4 10e-4,5.16e-4 3.56e-4,1.38e-4 6.77e-4,3.79e-4 10e-4,5.17e-4 0.05689,0.02198 0.112713,0.04602 0.167432,0.07235 0.0022,0.0011 0.0045,0.002 0.0067,0.0031 0.0012,6.03e-4 0.0024,0.0015 0.0036,0.0021 0.05572,0.02716 0.110339,0.05644 0.163298,0.08785 0.05258,0.03119 0.103571,0.0641 0.152962,0.09922 0.0017,0.0012 0.0035,0.0024 0.0052,0.0036 0.0016,0.0011 0.0031,0.0025 0.0046,0.0036 0.04919,0.03539 0.09661,0.07257 0.142111,0.111621 0.04693,0.04028 0.09186,0.08271 0.134358,0.126608 8.52e-4,8.8e-4 0.0017,0.0017 0.0026,0.0026 0.04099,0.04249 0.0799,0.08617 0.116272,0.131775 5.33e-4,6.68e-4 0.001,0.0014 0.0016,0.0021 5.37e-4,6.75e-4 10e-4,0.0014 0.0016,0.0021 0.037,0.04667 0.07115,0.09506 0.102836,0.144694 0.0642,0.100549 0.117242,0.206795 0.156579,0.31781 0.01967,0.0555 0.03589,0.112325 0.04858,0.170016 0.03811,0.173271 0.04337,0.355761 0.0093,0.543636 h 11.784811 l 1.5875,-13.045715 z" />
    <path
       id="path8453"
       style="fill:none;fill-opacity:1;stroke:#e2dbe3;stroke-width:0.396319;stroke-linecap:round;stroke-opacity:1"
       d="m -64.038204,76.036003 c -9.58249,0.04336 -14.801519,7.563155 -15.389758,13.045715 h 11.85354 c 0.01085,-0.05246 0.02317,-0.104523 0.03617,-0.156063 0.0026,-0.01015 0.0052,-0.02037 0.0078,-0.03049 0.0139,-0.05318 0.02877,-0.105643 0.04496,-0.157613 0.0044,-0.01427 0.0088,-0.02871 0.01344,-0.04289 7.99e-4,-0.0022 0.0013,-0.0045 0.0021,-0.0067 0.01509,-0.04594 0.03169,-0.09112 0.04858,-0.135908 0.0061,-0.01605 0.01179,-0.03217 0.01809,-0.04806 4e-4,-0.0012 0.0011,-0.0024 0.0016,-0.0036 0.01891,-0.04762 0.03895,-0.09448 0.05994,-0.14056 0.0057,-0.01259 0.01167,-0.02525 0.01757,-0.03772 3.6e-4,-8e-4 6.4e-4,-0.0018 0.001,-0.0026 0.02119,-0.04474 0.04347,-0.08821 0.06666,-0.131258 0.0074,-0.01365 0.01462,-0.02734 0.02222,-0.04082 0.0011,-0.0019 0.002,-0.0038 0.0031,-0.0057 0.02193,-0.03887 0.04512,-0.07692 0.06873,-0.114204 0.0091,-0.01433 0.01809,-0.02881 0.02739,-0.04289 0.0023,-0.0035 0.0049,-0.0068 0.0072,-0.01033 0.0271,-0.0405 0.05507,-0.08003 0.08423,-0.118339 0.0049,-0.0063 0.0096,-0.01282 0.01447,-0.01912 0.0012,-0.0016 0.0024,-0.0031 0.0036,-0.0046 0.03091,-0.03952 0.06298,-0.0778 0.09612,-0.114722 0.0077,-0.0086 0.01545,-0.01744 0.02326,-0.02584 0,0 5.16e-4,-5.17e-4 5.16e-4,-5.17e-4 0.03602,-0.03878 0.07357,-0.07556 0.112138,-0.111104 0.0051,-0.0047 0.0099,-0.0099 0.01499,-0.01447 0.001,-9e-4 0.0021,-0.0017 0.0031,-0.0026 0.04227,-0.03797 0.086,-0.07417 0.131258,-0.108003 10e-4,-8e-4 0.0021,-0.0013 0.0031,-0.0021 0.04745,-0.03531 0.09656,-0.06826 0.147277,-0.0987 0.0018,-0.001 0.0035,-0.0021 0.0052,-0.0031 0.0014,-8e-4 0.0027,-0.0018 0.0041,-0.0026 0.0496,-0.02935 0.100282,-0.05623 0.152963,-0.08062 0.0012,-5.02e-4 0.0024,-0.001 0.0036,-0.0016 0.0014,-7e-4 0.0027,-0.0014 0.0041,-0.0021 0.05316,-0.02429 0.108051,-0.04566 0.164331,-0.0646 0.0011,-3e-4 0.002,-0.0012 0.0031,-0.0016 0.0012,-3.62e-4 0.0024,-6.42e-4 0.0036,-10e-4 0.05643,-0.01872 0.11462,-0.03449 0.174149,-0.04754 0.0022,-4e-4 0.0044,-0.0011 0.0067,-0.0016 0.05965,-0.01284 0.120701,-0.02266 0.183451,-0.02946 0.0027,-2.51e-4 0.0052,-7.59e-4 0.0078,-10e-4 9e-4,-8.9e-5 0.0017,8.8e-5 0.0026,0 0.06443,-0.0066 0.130768,-0.01034 0.198437,-0.01034 h 0.194304 z" />
    <path
       id="path8455"
       style="fill:none;fill-opacity:1;stroke:#e2dbe3;stroke-width:0.39632;stroke-linecap:round;stroke-opacity:1"
       d="m -81.481583,105.46924 h 13.802567 l -1.5875,13.04547 h -13.802567 z"
       sodipodi:nodetypes="ccccc" />
  </g>
</svg>
